<svg viewBox="0 0 275.59 283.372" xml:space="preserve" xmlns="http://www.w3.org/2000/svg" enable-background="new 0 0 275.59 283.372"><path d="M269.745 75.249V56.118h-67.852v19.131a6.123 6.123 0 0 0 6.122 6.122h55.608a6.123 6.123 0 0 0 6.122-6.122zm-43.057-2.184a7.142 7.142 0 1 1-11.837-7.993c2.029-3.007 5.944-3.969 9.103-2.39l-2.342 3.468 1.551 1.046 2.341-3.467c2.645 2.341 3.214 6.331 1.184 9.336zm30.1 0a7.142 7.142 0 1 1-11.837-7.993c2.029-3.007 5.944-3.969 9.103-2.39l-2.342 3.468 1.551 1.046 2.341-3.467c2.644 2.341 3.214 6.331 1.184 9.336zM269.745 6.122A6.121 6.121 0 0 0 263.623 0h-55.608a6.121 6.121 0 0 0-6.122 6.122v46.935h67.852V6.122zM244.746 84.177h13.264v3.571h-13.264zM82.81 176.163l19.031 43.719-21.146 45.742c-2.896 6.267-.165 13.694 6.102 16.592a12.45 12.45 0 0 0 5.237 1.156c4.722 0 9.242-2.689 11.354-7.258l23.5-50.834a12.496 12.496 0 0 0 .114-10.234l-8.47-19.456 24.646 27.247 1.367 47.393c.196 6.778 5.752 12.14 12.488 12.14.122 0 .245-.002.367-.005 6.9-.199 12.334-5.955 12.135-12.855l-1.5-52a12.498 12.498 0 0 0-3.225-8.025l-29-32.059 11.209-44.014 2.751 5.865 4.005 8.537a8.001 8.001 0 0 0 10.229 4.024l22.52-9.06-.795 9.771a3.95 3.95 0 1 0 7.876.63l1.138-13.985c2.88-2.109 4.09-5.967 2.696-9.432a7.963 7.963 0 0 0-1.715-2.62l.737-9.056c3.548-1.241 6.218-4.473 6.536-8.462.32-3.989-1.802-7.604-5.108-9.393l-.486 6.073a3.95 3.95 0 1 1-7.878-.63l.486-6.072a9.788 9.788 0 0 0-6.536 8.462c-.32 3.987 1.802 7.603 5.109 9.391l-.616 7.567a8.248 8.248 0 0 0-.937.305l-21.983 8.844-12.142-25.883a7.94 7.94 0 0 0-2.641-3.14l5.529-.715a7.998 7.998 0 0 0 5.139-2.836l33.417-40.416a8 8 0 0 0-12.331-10.196l-12.51 15.13c-.383 2.184-1.897 4.343-4.778 5.779l-2.894 3.5c2.807 11.986-3.437 24.607-15.186 29.407a25.377 25.377 0 0 1-9.637 1.899 25.388 25.388 0 0 1-22.265-13.092l-7.8 1.009c-3.735.483-6.524 3.471-6.918 7.055a7.68 7.68 0 0 0-.511 1.352l-4.845 18.337-11.827 44.769c-1.36 3.084-1.489 6.699-.038 10.033z" fill="#ffffff" class="fill-000000"></path><path d="M145.602 60.403a22.42 22.42 0 0 0-17.102-.038c-11.503 4.699-17.019 17.835-12.32 29.338 4.7 11.505 17.835 17.019 29.338 12.32 11.054-4.516 16.572-16.816 12.819-27.978-5.096 1.351-9.699 1.852-12.958 1.467a61.458 61.458 0 0 0 6.75-2.313c8.171-3.338 14.513-7.845 16.62-11.445.728-1.243.958-2.379.574-3.32-1.373-3.361-10.008-3.066-19.909.468-.895.319-1.795.655-2.706 1.027-.375.154-.737.316-1.106.474zM263.24 270.924c-5.353-.453-9.651-3.032-10.677-6.112a4.369 4.369 0 0 0-.523 1.692c-.141 1.665.714 3.276 2.251 4.606-21.211 10.9-39.795 2.29-39.795 2.29s-.531.284-1.174.753c-21.056-6.853-17.553-21.067-9.333-54.305 6.961-28.145 17.442-70.562 17.629-132.1h5.271v-3.571h-13.264v3.571h4.993c-.188 61.174-10.616 103.376-17.542 131.381-8.058 32.583-12.244 49.566 10.118 57.468-.784 2.269 1.919 5.065 18.441 5.956 23.592 1.272 34.833-5.682 38.321-8.442 3.958-.784 6.833-2.918 7.066-5.661a4.365 4.365 0 0 0-.231-1.756c-1.528 2.864-6.199 4.683-11.551 4.23z" fill="#ffffff" class="fill-000000"></path><path d="M264.667 254.07c-6.347-.537-11.753 2.114-12.075 5.922-.045.527.02 1.048.165 1.557.903 3.168 5.275 5.848 10.743 6.311s10.229-1.443 11.651-4.415c.229-.478.38-.98.424-1.507.322-3.808-4.561-7.331-10.908-7.868zm3.88 3.491c.527.328.659 1.07.294 1.656-.365.586-1.088.795-1.616.466-.527-.328-.659-1.07-.294-1.656.365-.586 1.088-.794 1.616-.466zm-5.216-.966c.527.328.659 1.07.294 1.656s-1.088.795-1.616.466c-.527-.329-.659-1.07-.294-1.656s1.089-.794 1.616-.466zm-6.863 2.271c.365-.586 1.088-.795 1.616-.466s.659 1.07.294 1.656c-.365.586-1.088.795-1.616.466-.527-.329-.659-1.07-.294-1.656zm5.55 5.158c-.365.586-1.088.795-1.616.466-.527-.328-.659-1.07-.294-1.656s1.088-.795 1.616-.466c.527.329.659 1.07.294 1.656zm6.249 1.315c-.365.586-1.088.795-1.616.466-.527-.328-.659-1.07-.294-1.656s1.088-.795 1.616-.466c.527.329.659 1.07.294 1.656zm2.557-2.096c-.527-.328-.659-1.07-.294-1.656.365-.586 1.088-.795 1.616-.466.527.328.659 1.07.294 1.656-.365.586-1.088.795-1.616.466zM0 264.734h62.668v17.51H0zM62.668 262.534v-11.623H46.084v-7.667h2.875v-3h-35.25v3h2.874v7.667H0v11.623h62.668zm-43.086-17.792h23.5v6.169h-23.5v-6.169z" fill="#ffffff" class="fill-000000"></path></svg>