<?xml version="1.0" standalone="no"?>
<!DOCTYPE svg PUBLIC "-//W3C//DTD SVG 20010904//EN"
 "http://www.w3.org/TR/2001/REC-SVG-20010904/DTD/svg10.dtd">
<svg version="1.0" xmlns="http://www.w3.org/2000/svg"
 width="1024.000000pt" height="1024.000000pt" viewBox="0 0 1024.000000 1024.000000"
 preserveAspectRatio="xMidYMid meet">

<g transform="translate(0.000000,1024.000000) scale(0.100000,-0.100000)"
fill="#000000" stroke="none">
<path d="M3738 8405 c-205 -50 -374 -220 -423 -426 -13 -56 -15 -321 -15
-2170 0 -1441 3 -2124 11 -2165 27 -151 147 -314 285 -386 102 -53 163 -68
280 -68 l102 0 4 -147 c3 -136 5 -152 28 -193 30 -53 105 -107 161 -116 l39
-7 0 -127 c0 -146 -13 -196 -63 -248 -65 -68 -57 -66 -435 -72 l-344 -5 -35
-39 c-32 -35 -35 -42 -30 -84 4 -36 12 -53 37 -75 l32 -28 361 3 362 3 78 37
c53 25 95 55 130 91 104 106 137 205 137 413 l0 132 38 7 c92 16 164 91 182
187 6 28 10 100 10 159 l0 109 450 0 450 0 0 -109 c0 -135 13 -205 47 -254 31
-44 91 -82 146 -92 l37 -7 0 -132 c0 -208 33 -307 137 -413 35 -36 77 -66 130
-91 l78 -37 362 -3 361 -3 32 28 c25 22 33 39 37 75 5 42 2 49 -30 84 l-35 39
-344 5 c-383 6 -373 4 -441 79 -48 53 -57 92 -57 244 0 125 0 127 23 127 39 0
123 47 152 84 45 59 54 100 55 242 l0 132 123 4 c95 4 135 10 182 28 163 62
284 186 348 356 l22 59 3 2138 c2 1897 1 2145 -13 2204 -49 212 -223 384 -434
429 -97 20 -2668 19 -2753 -1z m2784 -248 c72 -35 140 -110 168 -183 l20 -55
-2 -2132 -3 -2132 -27 -50 c-49 -93 -126 -154 -223 -180 -52 -13 -217 -15
-1335 -15 -1118 0 -1283 2 -1335 15 -97 26 -174 87 -223 180 l-27 50 -3 2132
c-2 2117 -2 2132 18 2186 35 93 120 173 215 203 32 10 321 12 1370 11 l1330
-2 57 -28z m-2082 -5087 l0 -110 -115 0 -115 0 0 110 0 110 115 0 115 0 0
-110z m1590 0 l0 -110 -115 0 -115 0 0 110 0 110 115 0 115 0 0 -110z"/>
<path d="M4866 7500 c-68 -21 -102 -90 -72 -148 32 -62 34 -62 326 -62 292 0
294 0 326 62 31 60 -4 127 -77 148 -41 12 -463 12 -503 0z"/>
<path d="M4952 5210 c-96 -26 -187 -71 -258 -129 -389 -313 -319 -924 131
-1141 342 -164 736 -27 906 315 180 363 -10 816 -396 942 -111 36 -278 42
-383 13z m58 -291 c0 -67 2 -73 34 -105 28 -28 42 -34 76 -34 34 0 48 6 76 34
32 32 34 38 34 105 0 39 4 71 9 71 5 0 31 -9 57 -20 120 -52 218 -160 255
-282 17 -55 21 -88 17 -161 -3 -81 -8 -102 -39 -168 -47 -98 -115 -166 -216
-216 -76 -37 -79 -38 -192 -38 -113 0 -118 1 -192 36 -100 48 -170 119 -218
218 -31 66 -36 87 -39 168 -4 73 0 106 17 161 36 121 126 222 246 278 74 34
75 34 75 -47z"/>
</g>
</svg>
